<?xml version="1.0" standalone="no"?><!DOCTYPE svg PUBLIC "-//W3C//DTD SVG 1.1//EN" "http://www.w3.org/Graphics/SVG/1.1/DTD/svg11.dtd"><svg t="1701691031450" class="icon" viewBox="0 0 1024 1024" version="1.1" xmlns="http://www.w3.org/2000/svg" p-id="7091" xmlns:xlink="http://www.w3.org/1999/xlink" width="200" height="200"><path d="M772.437333 90.136381l51.712 51.712-136.094476 136.094476h132.973714a71.094857 71.094857 0 0 1 71.314286 70.89981v472.600381a71.094857 71.094857 0 0 1-71.314286 70.899809H202.971429A71.094857 71.094857 0 0 1 131.657143 821.443048V348.842667A71.094857 71.094857 0 0 1 202.971429 277.942857h132.949333L199.850667 141.848381l51.712-51.712 187.806476 187.806476h145.237333l187.830857-187.806476zM548.571429 414.47619h-73.142858v341.333334h73.142858V414.47619zM414.47619 487.619048h-73.142857v195.047619h73.142857v-195.047619z m268.190477 24.380952h-73.142857v146.285714h73.142857v-146.285714z" p-id="7092" fill="#ffffff"></path></svg>